<svg xmlns="http://www.w3.org/2000/svg" viewBox="0 0 48 48"><path fill="#bbdefb" d="M6,10c0-2.209,1.791-4,4-4h28c2.209,0,4,1.791,4,4v28c0,2.209-1.791,4-4,4H10c-2.209,0-4-1.791-4-4 V10z"/><path fill="#1976d2" d="M26.683 16L25.642 24 28.667 24 29.317 19 35 19 35 16z"/><path fill="#1976d2" d="M30 21c-2.226 0-3.83 1.418-4.324 3H30c1.103 0 2 .897 2 2v1c0 1.103-.897 2-2 2s-2-.897-2-2h-3c0 2.757 2.243 5 5 5s5-2.243 5-5v-1C35 23.243 32.757 21 30 21zM21 26h2v3h-2v3h-3v-3h-6l.013-2.66 5.201-10.307V16H21V26zM15 26h3v-6L15 26z"/></svg>